<?xml version="1.0" encoding="UTF-8" standalone="no"?>
<!-- Created with Inkscape (http://www.inkscape.org/) -->

<svg
   xmlns:dc="http://purl.org/dc/elements/1.1/"
   xmlns:cc="http://creativecommons.org/ns#"
   xmlns:rdf="http://www.w3.org/1999/02/22-rdf-syntax-ns#"
   xmlns:svg="http://www.w3.org/2000/svg"
   xmlns="http://www.w3.org/2000/svg"
   xmlns:xlink="http://www.w3.org/1999/xlink"
   xmlns:sodipodi="http://sodipodi.sourceforge.net/DTD/sodipodi-0.dtd"
   xmlns:inkscape="http://www.inkscape.org/namespaces/inkscape"
   width="106.09748"
   height="55.0909"
   id="svg2"
   version="1.1"
   inkscape:version="0.48.3.1 r9886"
   sodipodi:docname="toaru_logo.svg">
  <defs
     id="defs4">
    <linearGradient
       id="linearGradient3784">
      <stop
         style="stop-color:#0f69cd;stop-opacity:1;"
         offset="0"
         id="stop3786" />
      <stop
         style="stop-color:#0c1982;stop-opacity:1;"
         offset="1"
         id="stop3788" />
    </linearGradient>
    <linearGradient
       inkscape:collect="always"
       xlink:href="#linearGradient3784"
       id="linearGradient3792"
       x1="152.86658"
       y1="179.07208"
       x2="279.0625"
       y2="179.07208"
       gradientUnits="userSpaceOnUse" />
    <linearGradient
       inkscape:collect="always"
       xlink:href="#linearGradient3784"
       id="linearGradient3069"
       gradientUnits="userSpaceOnUse"
       x1="152.86658"
       y1="179.07208"
       x2="279.0625"
       y2="179.07208" />
    <linearGradient
       inkscape:collect="always"
       xlink:href="#linearGradient3784"
       id="linearGradient3071"
       gradientUnits="userSpaceOnUse"
       x1="152.86658"
       y1="179.07208"
       x2="279.0625"
       y2="179.07208" />
    <linearGradient
       inkscape:collect="always"
       xlink:href="#linearGradient3784"
       id="linearGradient3074"
       gradientUnits="userSpaceOnUse"
       x1="152.86658"
       y1="179.07208"
       x2="279.0625"
       y2="179.07208"
       gradientTransform="matrix(1.519749,0,0,1.519749,-106.76357,-81.244093)" />
    <linearGradient
       inkscape:collect="always"
       xlink:href="#linearGradient3784"
       id="linearGradient3076"
       gradientUnits="userSpaceOnUse"
       x1="152.86658"
       y1="179.07208"
       x2="279.0625"
       y2="179.07208" />
  </defs>
  <sodipodi:namedview
     id="base"
     pagecolor="#ffffff"
     bordercolor="#666666"
     borderopacity="1.0"
     inkscape:pageopacity="0.0"
     inkscape:pageshadow="2"
     inkscape:zoom="14.481547"
     inkscape:cx="56.591167"
     inkscape:cy="27.531863"
     inkscape:document-units="px"
     inkscape:current-layer="layer1"
     showgrid="false"
     showguides="true"
     inkscape:guide-bbox="true"
     inkscape:window-width="1920"
     inkscape:window-height="1052"
     inkscape:window-x="0"
     inkscape:window-y="0"
     inkscape:window-maximized="1"
     fit-margin-top="0"
     fit-margin-left="0"
     fit-margin-right="0"
     fit-margin-bottom="0">
    <sodipodi:guide
       orientation="1,0"
       position="-103.69117,108.92637"
       id="guide3000" />
  </sodipodi:namedview>
  <metadata
     id="metadata7">
    <rdf:RDF>
      <cc:Work
         rdf:about="">
        <dc:format>image/svg+xml</dc:format>
        <dc:type
           rdf:resource="http://purl.org/dc/dcmitype/StillImage" />
        <dc:title />
      </cc:Work>
    </rdf:RDF>
  </metadata>
  <g
     inkscape:label="Layer 1"
     inkscape:groupmode="layer"
     id="layer1"
     transform="translate(-124.04831,-163.34051)">
    <g
       style="font-size:40px;font-style:normal;font-weight:normal;line-height:125%;letter-spacing:0px;word-spacing:0px;fill:#000000;fill-opacity:1;stroke:none;font-family:Sans"
       id="flowRoot2985" />
    <g
       id="g3794"
       style="font-size:40px;font-style:normal;font-variant:normal;font-weight:normal;font-stretch:normal;line-height:125%;letter-spacing:0px;word-spacing:0px;fill:url(#linearGradient3792);fill-opacity:1;stroke:#0077c6;stroke-width:1.97401023;stroke-linecap:round;stroke-linejoin:round;stroke-miterlimit:4;stroke-opacity:1;stroke-dasharray:none;font-family:TakaoExMincho;-inkscape-font-specification:TakaoExMincho"
       transform="matrix(1.519749,0,0,1.519749,-106.76357,-81.244093)"
       inkscape:export-filename="/home/klange/flowRoot3002.png"
       inkscape:export-xdpi="90"
       inkscape:export-ydpi="90">
      <path
         d="m 206.32127,181.94562 c -0.0171,-0.0857 -0.0257,-0.20134 -0.0257,-0.347 -1e-5,-0.61687 0.19277,-1.1395 0.57832,-1.5679 0.54833,-0.59973 1.28516,-0.8996 2.21048,-0.89961 1.645,1e-5 3.07581,0.72826 4.29244,2.18478 0.69398,0.83964 1.10951,1.74354 1.24662,2.71169 0.94243,-0.29987 1.76922,-0.77538 2.48036,-1.42653 1.17376,-1.07097 1.76065,-2.32614 1.76067,-3.76552 -2e-5,-1.49079 -0.65117,-2.64743 -1.95345,-3.46994 -0.9853,-0.61688 -2.13338,-0.92532 -3.44424,-0.92532 -1.011,0 -2.0477,0.19278 -3.11009,0.57832 -2.53606,0.92533 -4.51092,2.41183 -5.9246,4.45952 -0.33414,0.48836 -0.67685,0.73255 -1.02813,0.73254 -0.41982,1e-5 -0.62973,-0.42838 -0.62973,-1.28517 0,-0.48835 0.21848,-0.93816 0.65544,-1.34942 l 3.76552,-3.5856 c 1.19948,-1.1395 3.31571,-3.25145 6.3487,-6.33585 l 1.38798,-1.42653 -0.0514,-0.10282 c -3.08439,1.04529 -5.1535,1.79925 -6.20733,2.26189 -0.36842,0.1371 -0.65116,0.20564 -0.84821,0.20563 -0.96816,1e-5 -1.67929,-0.76252 -2.13337,-2.28759 l 0.55262,-0.33415 c 0.34271,0.53979 0.83535,0.80967 1.47793,0.80965 0.85678,2e-5 2.50607,-0.34268 4.94789,-1.02813 1.07952,-0.29127 1.79921,-0.56973 2.15907,-0.83535 0.0942,-0.0685 0.20132,-0.10279 0.32129,-0.10281 0.3941,2e-5 0.82249,0.3513 1.28516,1.05383 0.29986,0.46268 0.44979,0.80539 0.44981,1.02813 -2e-5,0.18851 -0.16709,0.34702 -0.50121,0.47551 -0.70257,0.25705 -3.17009,2.39471 -7.40254,6.41296 l -0.65544,0.62974 -1.15664,1.10523 0.0771,0.0771 c 2.37326,-1.37083 4.5923,-2.05624 6.65714,-2.05626 1.9363,2e-5 3.51704,0.45839 4.74225,1.37512 1.37082,1.01958 2.05624,2.30902 2.05626,3.86835 -2e-5,1.76496 -0.74541,3.31572 -2.23618,4.65228 -1.64502,1.45653 -3.61989,2.18479 -5.9246,2.18479 -2.21049,0 -3.93261,-0.56119 -5.16636,-1.68357 -0.62545,-0.59117 -0.97672,-1.25518 -1.05383,-1.992 m 6.47722,2.3904 c -0.23991,-1.19091 -0.63402,-2.12908 -1.18235,-2.8145 -0.79681,-0.97672 -1.65787,-1.46509 -2.58318,-1.46509 -1.07954,0 -1.63216,0.51835 -1.65786,1.55505 0.0257,0.60831 0.3427,1.14808 0.95102,1.6193 0.98529,0.75397 2.27473,1.13094 3.86834,1.13094 0.26559,0 0.46694,-0.009 0.60403,-0.0257 m -20.27472,-5.34625 c -0.10283,-0.37697 -0.39842,-0.74538 -0.88677,-1.10524 l 0.41126,-0.46265 c 1.08809,0.44553 1.79921,0.97673 2.13337,1.59359 1.31941,0.16281 2.44179,0.50552 3.36713,1.02813 2.09051,1.16523 3.13577,2.81452 3.13579,4.94788 -2e-5,2.47609 -1.10526,4.42525 -3.31572,5.84749 -1.63645,1.02813 -3.80409,1.71356 -6.50292,2.05626 l -0.20563,-0.60402 c 5.54332,-1.15665 8.31499,-3.58989 8.31501,-7.29973 -2e-5,-1.62786 -0.62118,-2.93444 -1.86349,-3.91974 -0.76255,-0.59974 -1.72214,-0.99385 -2.87877,-1.18235 -0.17994,1.00243 -0.79252,2.28332 -1.83778,3.84263 -1.02814,1.49937 -2.18478,2.81451 -3.46994,3.94546 0.0257,0.16279 0.0685,0.35985 0.12852,0.59117 0.0771,0.27417 0.11994,0.42839 0.12851,0.46266 0.10281,0.34271 0.15421,0.66829 0.15422,0.97672 -1e-5,0.58261 -0.18421,1.08382 -0.55262,1.50364 -0.1885,0.18849 -0.35556,0.28274 -0.50121,0.28274 -0.43696,0 -0.70685,-0.8782 -0.80965,-2.63459 -2.03913,1.5165 -3.69699,2.27474 -4.97358,2.27474 -1.42225,0 -2.13338,-0.87819 -2.13337,-2.63458 -1e-5,-2.15907 1.1395,-4.21961 3.41853,-6.18164 1.02813,-0.83106 2.2576,-1.53361 3.68842,-2.10766 0.0343,-0.5826 0.0728,-1.18662 0.11566,-1.81208 0.0428,-0.57403 0.0642,-0.8739 0.0643,-0.89961 l 0.0514,-0.66829 c -0.57405,0.0428 -0.99387,0.0643 -1.25946,0.0643 -1.97915,1e-5 -3.32001,-0.69398 -4.02256,-2.08197 l 0.50121,-0.42411 c 0.65972,0.98531 1.64073,1.47796 2.94303,1.47795 0.50549,1e-5 1.15664,-0.0471 1.95344,-0.14138 l 0.0514,-0.57832 0.0257,-0.46266 c 0.0685,-0.69397 0.1028,-1.20375 0.10282,-1.52934 -2e-5,-0.94243 -0.4284,-1.61072 -1.28517,-2.00485 l 0.35985,-0.55263 c 1.84205,0.34274 2.76309,0.9382 2.7631,1.78638 -10e-6,0.20565 -0.0857,0.63832 -0.25704,1.29801 -0.11996,0.51409 -0.25276,1.11812 -0.3984,1.81209 1.34513,-0.23132 2.42467,-0.55689 3.23862,-0.97672 0.0171,-0.0171 0.0343,-0.0257 0.0514,-0.0257 0.24845,-0.11993 0.49263,-0.26987 0.73254,-0.44981 0.33413,-0.22274 0.66827,-0.33412 1.00243,-0.33414 0.3941,2e-5 0.75394,0.0857 1.07954,0.25703 0.24845,0.1371 0.37268,0.27848 0.37269,0.4241 -1e-5,0.19708 -0.17565,0.38986 -0.52692,0.57833 -1.5165,0.76255 -3.55991,1.34087 -6.13022,1.73497 -0.14566,1.01958 -0.24419,2.03914 -0.29559,3.05869 1.36226,-0.41124 2.63457,-0.66827 3.81694,-0.7711 m 0.0514,0.84821 c -1.29374,0.0771 -2.60033,0.36842 -3.91975,0.87391 -0.0171,0.32559 -0.0257,1.15666 -0.0257,2.49321 0,1.33658 0.0343,2.39898 0.10281,3.18721 1.18234,-1.23375 2.21904,-2.75024 3.1101,-4.54948 0.4198,-0.8739 0.66399,-1.54218 0.73254,-2.00485 m -5.1535,7.81379 c -0.0343,-1.43938 -0.0514,-2.41182 -0.0514,-2.91732 -2e-5,-0.14564 0.004,-0.5826 0.0128,-1.31087 0.0171,-0.83963 0.03,-1.55932 0.0386,-2.15907 -0.694,0.35129 -1.43082,0.83108 -2.21048,1.43938 -2.14195,1.82494 -3.21291,3.73983 -3.21291,5.74468 0,0.93389 0.37698,1.40083 1.13094,1.40083 1.0624,0 2.49322,-0.73254 4.29245,-2.19763 m -26.11204,-8.93786 c -1.21545,-3.67525 -2.09086,-7.77013 -2.62622,-12.28467 -0.13023,-1.34564 -0.41241,-2.23551 -0.84648,-2.66964 -0.39068,-0.30382 -1.07076,-0.47745 -2.0402,-0.52091 l 0.0435,-1.0201 c 1.02733,-0.18807 1.8738,-0.28211 2.53941,-0.28215 2.31513,4e-5 3.4727,1.00567 3.47271,3.01691 -1e-5,0.058 -0.0289,0.49199 -0.0869,1.30225 -0.0289,0.26049 -0.0435,0.67287 -0.0435,1.23717 -1e-5,1.0997 0.10118,2.62625 0.30386,4.57961 0.17363,1.8232 0.57154,3.64635 1.19374,5.4695 l 0.49921,-0.26046 c 0.4196,-0.26044 1.79419,-1.04901 4.12382,-2.36576 l 1.60612,-0.86817 3.47271,-1.97511 c 0.6511,-0.34724 0.97667,-0.73069 0.97668,-1.15033 -1e-5,-0.39064 -0.31111,-0.87539 -0.93328,-1.4542 l 0.75966,-0.75965 c 2.6045,1.27335 3.90676,2.56114 3.90679,3.86337 -3e-5,0.59328 -0.90438,1.24442 -2.71305,1.9534 -13.42778,5.36823 -20.14166,10.09255 -20.14166,14.17296 0,3.37142 3.63186,5.05712 10.89559,5.05712 3.32799,0 6.46789,-0.38344 9.4197,-1.15034 0.92603,-0.26045 1.56269,-0.39066 1.90998,-0.39067 0.65111,1e-5 1.30225,0.23875 1.9534,0.71624 0.50641,0.31833 0.75962,0.68732 0.75966,1.10692 -4e-5,0.63668 -0.6367,1.06352 -1.90999,1.28057 -3.09651,0.59325 -6.57645,0.88988 -10.4398,0.88988 -9.6657,0 -14.49853,-2.47431 -14.49853,-7.42291 0,-3.22669 2.81434,-6.58364 8.44301,-10.07083"
         style="fill:url(#linearGradient3076);fill-opacity:1;stroke:#0077c6;stroke-width:1.97401023;stroke-linecap:round;stroke-linejoin:round;stroke-miterlimit:4;stroke-opacity:1;stroke-dasharray:none"
         id="path3796"
         inkscape:connector-curvature="0"
         sodipodi:nodetypes="cccccccccscccsccccccccccccccccccccccccsccccsccscccccccccccccccccccscsccccccsccccccccccccccccccccccccsccccccccsscccccccccscccccccccccsscccccssc" />
    </g>
    <path
       inkscape:connector-curvature="0"
       d="m 206.79297,195.26758 c -0.026,-0.13024 -0.0391,-0.30599 -0.0391,-0.52735 -2e-5,-0.93749 0.29296,-1.73176 0.8789,-2.38282 0.83332,-0.91144 1.95312,-1.36716 3.35937,-1.36718 2.49999,2e-5 4.67446,1.10677 6.52343,3.32032 1.05468,1.27604 1.68618,2.64974 1.89455,4.12109 1.43226,-0.45573 2.68877,-1.17839 3.76953,-2.16797 1.78382,-1.62761 2.67574,-3.53515 2.67577,-5.72265 -3e-5,-2.26562 -0.98961,-4.02342 -2.96875,-5.27343 -1.49741,-0.93751 -3.2422,-1.40626 -5.23438,-1.40626 -1.53647,0 -3.11199,0.29298 -4.72656,0.8789 -3.85417,1.40627 -6.85546,3.66538 -9.0039,6.77736 -0.50781,0.74218 -1.02864,1.11329 -1.5625,1.11327 -0.63802,2e-5 -0.95703,-0.65103 -0.95703,-1.95313 0,-0.74217 0.33203,-1.42577 0.9961,-2.05078 l 5.72265,-5.44922 c 1.82291,-1.73175 5.03904,-4.94138 9.64843,-9.6289 l 2.10938,-2.16796 -0.0781,-0.15627 c -4.68749,1.58858 -7.83202,2.73441 -9.43358,3.43751 -0.55991,0.20836 -0.9896,0.31252 -1.28907,0.31251 -1.47136,1e-5 -2.55209,-1.15884 -3.24218,-3.47657 l 0.83984,-0.50782 c 0.52083,0.82034 1.26952,1.23049 2.24608,1.23046 1.30209,3e-5 3.8086,-0.52078 7.51955,-1.5625 1.6406,-0.44265 2.73435,-0.86584 3.28125,-1.26952 0.14316,-0.1041 0.30595,-0.15621 0.48828,-0.15624 0.59893,3e-5 1.24998,0.53388 1.95312,1.60155 0.45571,0.70316 0.68357,1.22399 0.6836,1.5625 -3e-5,0.28649 -0.25394,0.52739 -0.76172,0.72266 -1.06773,0.39065 -4.81774,3.63936 -11.25,9.74609 l -0.9961,0.95705 -1.7578,1.67967 0.11717,0.11717 c 3.60676,-2.08332 6.97914,-3.12497 10.11718,-3.125 2.94269,3e-5 5.34502,0.69664 7.20703,2.08984 2.0833,1.5495 3.12497,3.50913 3.125,5.87892 -3e-5,2.6823 -1.13284,5.03906 -3.39843,7.0703 -2.50002,2.21356 -5.50133,3.32033 -9.00391,3.32033 -3.35939,0 -5.97658,-0.85287 -7.85157,-2.5586 -0.95053,-0.89843 -1.48437,-1.90756 -1.60156,-3.02734 m 9.84375,3.6328 c -0.3646,-1.80988 -0.96355,-3.23566 -1.79687,-4.27733 -1.21095,-1.48437 -2.51955,-2.22657 -3.92579,-2.22657 -1.64063,0 -2.48047,0.78776 -2.51953,2.36329 0.0391,0.92448 0.52082,1.74479 1.44531,2.46093 1.4974,1.14584 3.45702,1.71874 5.87891,1.71874 0.40363,0 0.70963,-0.0137 0.91797,-0.0391 m -30.81248,-8.12495 c -0.15628,-0.5729 -0.6055,-1.13279 -1.34767,-1.67969 l 0.62501,-0.70311 c 1.65362,0.67709 2.73435,1.48438 3.24219,2.42185 2.00517,0.24743 3.71091,0.76827 5.11719,1.5625 3.17705,1.77086 4.76558,4.27737 4.76561,7.51954 -3e-5,3.76303 -1.67971,6.72527 -5.03906,8.88672 -2.48699,1.5625 -5.78126,2.60418 -9.8828,3.12499 l -0.31251,-0.91795 c 8.42445,-1.75782 12.6367,-5.45574 12.63673,-11.09376 -3e-5,-2.47394 -0.94404,-4.45961 -2.83204,-5.95702 -1.15888,-0.91146 -2.61722,-1.5104 -4.37501,-1.79688 -0.27346,1.52344 -1.20443,3.47008 -2.79296,5.83984 -1.56252,2.27866 -3.32032,4.27734 -5.27344,5.9961 0.0391,0.2474 0.1041,0.54689 0.19532,0.89843 0.11717,0.41667 0.18228,0.65105 0.1953,0.70313 0.15625,0.52083 0.23436,1.01563 0.23438,1.48437 -2e-5,0.88542 -0.27996,1.64714 -0.83985,2.28516 -0.28647,0.28645 -0.54036,0.42969 -0.76171,0.42969 -0.66407,0 -1.07423,-1.33464 -1.23046,-4.00392 -3.09897,2.3047 -5.6185,3.45704 -7.5586,3.45704 -2.16146,0 -3.2422,-1.33463 -3.24218,-4.0039 -2e-5,-3.28125 1.73175,-6.41275 5.1953,-9.39454 1.5625,-1.26301 3.43099,-2.33071 5.60548,-3.20312 0.0521,-0.8854 0.11063,-1.80336 0.17577,-2.7539 0.0651,-0.87239 0.0976,-1.32811 0.0977,-1.36719 l 0.0781,-1.01563 c -0.87241,0.0651 -1.51043,0.0977 -1.91406,0.0977 -3.00781,2e-5 -5.04558,-1.05467 -6.11328,-3.16407 l 0.76171,-0.64454 c 1.00261,1.49742 2.4935,2.24613 4.47267,2.24611 0.76822,2e-5 1.7578,-0.0716 2.96874,-0.21486 l 0.0781,-0.8789 0.0391,-0.70313 c 0.1041,-1.05466 0.15623,-1.8294 0.15626,-2.32421 -3e-5,-1.43226 -0.65106,-2.44789 -1.95313,-3.04687 l 0.54688,-0.83986 c 2.79945,0.52088 4.1992,1.42583 4.19922,2.71485 -2e-5,0.31254 -0.13025,0.97009 -0.39064,1.97265 -0.18231,0.78129 -0.38413,1.69926 -0.60547,2.75392 2.04426,-0.35155 3.68489,-0.84633 4.92189,-1.48437 0.026,-0.026 0.0521,-0.0391 0.0781,-0.0391 0.37758,-0.18226 0.74867,-0.41013 1.11327,-0.68359 0.5078,-0.33851 1.01561,-0.50778 1.52345,-0.50781 0.59893,3e-5 1.1458,0.13024 1.64063,0.39062 0.37758,0.20836 0.56638,0.42322 0.56639,0.64452 -1e-5,0.29952 -0.26694,0.59249 -0.80079,0.87892 -2.30469,1.15888 -5.41016,2.03779 -9.31639,2.63672 -0.22137,1.5495 -0.37111,3.09898 -0.44922,4.64844 2.07029,-0.62498 4.00388,-1.0156 5.80079,-1.17188 m 0.0781,1.28907 c -1.96616,0.11717 -3.95185,0.5599 -5.95703,1.32812 -0.026,0.49482 -0.0391,1.75783 -0.0391,3.78906 0,2.03126 0.0521,3.64584 0.15624,4.84375 1.79686,-1.87499 3.37239,-4.17967 4.72658,-6.91406 0.63799,-1.32811 1.00909,-2.34373 1.11327,-3.04687 m -7.83202,11.875 c -0.0521,-2.1875 -0.0781,-3.66536 -0.0781,-4.4336 -3e-5,-0.22133 0.006,-0.8854 0.0194,-1.99219 0.026,-1.27603 0.0456,-2.36977 0.0587,-3.28124 -1.05471,0.53387 -2.17449,1.26303 -3.35938,2.18749 -3.25523,2.77345 -4.88282,5.6836 -4.88282,8.73047 0,1.41928 0.57292,2.12891 1.71875,2.12891 1.61458,0 3.78907,-1.11327 6.52345,-3.33984 m -39.68375,-13.58331 c -1.84718,-5.58545 -3.17758,-11.80864 -3.9912,-18.66961 -0.19791,-2.04504 -0.62676,-3.39742 -1.28643,-4.05718 -0.59374,-0.46173 -1.62729,-0.72561 -3.10059,-0.79166 l 0.0661,-1.55029 c 1.56129,-0.28582 2.84771,-0.42874 3.85927,-0.4288 3.51842,6e-5 5.27763,1.52837 5.27765,4.58495 -2e-5,0.0881 -0.0439,0.7477 -0.13207,1.97909 -0.0439,0.39588 -0.0661,1.02259 -0.0661,1.88019 -1e-5,1.67127 0.15377,3.99124 0.46179,6.95986 0.26388,2.7708 0.8686,5.54153 1.81419,8.31226 l 0.75867,-0.39583 c 0.63769,-0.3958 2.72672,-1.59423 6.26717,-3.59536 l 2.4409,-1.3194 5.27765,-3.00167 c 0.98951,-0.52772 1.48429,-1.11047 1.48431,-1.74822 -2e-5,-0.59367 -0.47281,-1.33037 -1.41835,-2.21002 l 1.15449,-1.15447 c 3.95819,1.93517 5.93729,3.89229 5.93734,5.87135 -5e-5,0.90164 -1.37443,1.8912 -4.12315,2.96868 -20.40686,8.15836 -30.61027,15.33814 -30.61027,21.53934 0,5.12371 5.51951,7.68555 16.55856,7.68555 5.05771,0 9.82957,-0.58273 14.31558,-1.74823 1.40733,-0.39582 2.3749,-0.5937 2.90269,-0.59372 0.98952,2e-5 1.97909,0.36284 2.96868,1.08851 0.76961,0.48378 1.15443,1.04455 1.15449,1.68224 -6e-5,0.96759 -0.96762,1.61628 -2.90271,1.94614 -4.70591,0.90159 -9.99455,1.3524 -15.86587,1.3524 -14.68944,0 -22.03413,-3.76033 -22.03413,-11.28096 0,-4.90376 4.27709,-10.00548 12.83126,-15.30514"
       style="font-size:40px;font-style:normal;font-variant:normal;font-weight:normal;font-stretch:normal;line-height:125%;letter-spacing:0px;word-spacing:0px;fill:url(#linearGradient3074);fill-opacity:1;stroke:none;font-family:TakaoExMincho;-inkscape-font-specification:TakaoExMincho"
       id="path3013"
       sodipodi:nodetypes="cccccccccscccsccccccccccccccccccccccccsccccsccscccccccccccccccccccscsccccccsccccccccccccccccccccccccsccccccccsscccccccccscccccccccccsscccccssc" />
  </g>
</svg>
