<?xml version="1.0" encoding="UTF-8" standalone="no"?>
<!-- Created with Inkscape (http://www.inkscape.org/) -->

<svg
   xmlns:dc="http://purl.org/dc/elements/1.1/"
   xmlns:cc="http://creativecommons.org/ns#"
   xmlns:rdf="http://www.w3.org/1999/02/22-rdf-syntax-ns#"
   xmlns:svg="http://www.w3.org/2000/svg"
   xmlns="http://www.w3.org/2000/svg"
   xmlns:xlink="http://www.w3.org/1999/xlink"
   xmlns:sodipodi="http://sodipodi.sourceforge.net/DTD/sodipodi-0.dtd"
   xmlns:inkscape="http://www.inkscape.org/namespaces/inkscape"
   width="744.09448819"
   height="1052.3622047"
   id="svg2"
   version="1.1"
   inkscape:version="0.48.1 r9760"
   sodipodi:docname="New document 1">
  <defs
     id="defs4">
    <linearGradient
       id="linearGradient3784">
      <stop
         style="stop-color:#0f69cd;stop-opacity:1;"
         offset="0"
         id="stop3786" />
      <stop
         style="stop-color:#0c1982;stop-opacity:1;"
         offset="1"
         id="stop3788" />
    </linearGradient>
    <linearGradient
       inkscape:collect="always"
       xlink:href="#linearGradient3784"
       id="linearGradient3792"
       x1="152.86658"
       y1="179.07208"
       x2="279.0625"
       y2="179.07208"
       gradientUnits="userSpaceOnUse" />
  </defs>
  <sodipodi:namedview
     id="base"
     pagecolor="#ffffff"
     bordercolor="#666666"
     borderopacity="1.0"
     inkscape:pageopacity="0.0"
     inkscape:pageshadow="2"
     inkscape:zoom="0.22627417"
     inkscape:cx="697.51279"
     inkscape:cy="1220.4145"
     inkscape:document-units="px"
     inkscape:current-layer="layer1"
     showgrid="false"
     showguides="true"
     inkscape:guide-bbox="true"
     inkscape:window-width="1440"
     inkscape:window-height="876"
     inkscape:window-x="0"
     inkscape:window-y="24"
     inkscape:window-maximized="1">
    <sodipodi:guide
       orientation="1,0"
       position="20.357143,942.85714"
       id="guide3000" />
  </sodipodi:namedview>
  <metadata
     id="metadata7">
    <rdf:RDF>
      <cc:Work
         rdf:about="">
        <dc:format>image/svg+xml</dc:format>
        <dc:type
           rdf:resource="http://purl.org/dc/dcmitype/StillImage" />
        <dc:title></dc:title>
      </cc:Work>
    </rdf:RDF>
  </metadata>
  <g
     inkscape:label="Layer 1"
     inkscape:groupmode="layer"
     id="layer1">
    <g
       style="font-size:40px;font-style:normal;font-weight:normal;line-height:125%;letter-spacing:0px;word-spacing:0px;fill:#000000;fill-opacity:1;stroke:none;font-family:Sans"
       id="flowRoot2985" />
    <g
       id="g3794"
       style="font-size:40px;font-style:normal;font-variant:normal;font-weight:normal;font-stretch:normal;line-height:125%;letter-spacing:0px;word-spacing:0px;fill:url(#linearGradient3792);fill-opacity:1;stroke:#0077c6;font-family:TakaoExMincho;-inkscape-font-specification:TakaoExMincho;stroke-width:1.97401018000000006;stroke-miterlimit:4;stroke-dasharray:none;stroke-opacity:1;stroke-linejoin:round;stroke-linecap:round"
       transform="matrix(1.519749,0,0,1.519749,-106.76357,-81.244093)"
       inkscape:export-filename="/home/klange/flowRoot3002.png"
       inkscape:export-xdpi="90"
       inkscape:export-ydpi="90">
      <path
         d="m 276.83594,172.22852 c -0.20836,-2.01821 -0.93101,-3.68488 -2.16797,-5 -1.40627,-1.52341 -3.31382,-2.28513 -5.72266,-2.28516 -1.94011,3e-5 -3.47657,0.62503 -4.60937,1.875 -0.91147,0.98961 -1.3672,2.18101 -1.36719,3.57422 -10e-6,2.38283 1.73827,4.19272 5.21484,5.42969 l 0.9961,0.35156 c 4.21873,1.53647 6.94008,2.9948 8.16406,4.375 1.14581,1.30209 1.71873,2.85808 1.71875,4.66797 -2e-5,2.73438 -1.10679,4.83073 -3.32031,6.28906 -1.6146,1.05469 -3.53517,1.58203 -5.76172,1.58203 -2.43491,0 -4.70053,-0.65755 -6.79688,-1.97266 -0.59896,-0.40364 -1.06771,-0.60546 -1.40625,-0.60546 -0.48177,0 -0.72266,0.59896 -0.72265,1.79687 l -1.23047,0 0,-9.31641 1.15234,0 c 0.28646,2.44793 1.07422,4.38152 2.36328,5.80079 1.6927,1.80989 3.90624,2.71484 6.64063,2.71484 1.80988,0 3.24868,-0.49479 4.3164,-1.48438 1.14582,-1.02864 1.71874,-2.42838 1.71875,-4.19921 -1e-5,-1.32812 -0.48178,-2.51302 -1.44531,-3.55469 -0.87241,-0.92447 -2.69532,-1.95311 -5.46875,-3.08594 l -0.76172,-0.3125 c -2.90365,-1.1328 -4.8112,-2.04425 -5.72265,-2.73437 -1.67969,-1.27603 -2.51954,-2.96873 -2.51953,-5.07813 -1e-5,-2.35675 0.8789,-4.23825 2.63671,-5.64453 1.60156,-1.27601 3.63281,-1.91403 6.09375,-1.91406 2.13541,3e-5 4.2578,0.57294 6.36719,1.71875 0.42967,0.24742 0.74868,0.37112 0.95703,0.37109 0.37759,3e-5 0.58592,-0.53383 0.625,-1.60156 l 1.25,0 0,8.24219 -1.1914,0 m -35.72266,-9.04297 c 3.71092,3e-5 6.83592,1.26956 9.375,3.80859 2.87758,2.91669 4.31638,6.63413 4.31641,11.15234 -3e-5,4.77866 -1.45185,8.6198 -4.35547,11.52344 -2.51305,2.5 -5.62502,3.75 -9.33594,3.75 -3.69793,0 -6.81641,-1.26302 -9.35547,-3.78906 -2.90365,-2.90364 -4.35547,-6.70572 -4.35547,-11.40625 0,-4.57029 1.4388,-8.31378 4.31641,-11.23047 2.53905,-2.53903 5.67056,-3.80856 9.39453,-3.80859 m 0,1.40625 c -3.25522,3e-5 -5.83985,1.33466 -7.75391,4.0039 -1.75781,2.43492 -2.63672,5.61851 -2.63671,9.55078 -1e-5,3.4896 0.67707,6.41277 2.03125,8.76954 1.87499,3.30729 4.66144,4.96093 8.35937,4.96093 3.20311,0 5.76821,-1.32161 7.69531,-3.96484 1.78383,-2.42187 2.67576,-5.6315 2.67578,-9.62891 -2e-5,-4.27081 -1.00262,-7.64971 -3.00781,-10.13672 -1.88804,-2.36976 -4.34246,-3.55465 -7.36328,-3.55468 m -34.79201,17.35382 c -0.0171,-0.0857 -0.0257,-0.20134 -0.0257,-0.347 -10e-6,-0.61687 0.19277,-1.1395 0.57832,-1.5679 0.54833,-0.59973 1.28516,-0.8996 2.21048,-0.89961 1.645,1e-5 3.07581,0.72826 4.29244,2.18478 0.69398,0.83964 1.10951,1.74354 1.24662,2.71169 0.94243,-0.29987 1.76922,-0.77538 2.48036,-1.42653 1.17376,-1.07097 1.76065,-2.32614 1.76067,-3.76552 -2e-5,-1.49079 -0.65117,-2.64743 -1.95345,-3.46994 -0.9853,-0.61688 -2.13338,-0.92532 -3.44424,-0.92532 -1.011,0 -2.0477,0.19278 -3.11009,0.57832 -2.53606,0.92533 -4.51092,2.41183 -5.9246,4.45952 -0.33414,0.48836 -0.67685,0.73255 -1.02813,0.73254 -0.41982,1e-5 -0.62973,-0.42838 -0.62973,-1.28517 0,-0.48835 0.21848,-0.93816 0.65544,-1.34942 l 3.76552,-3.5856 c 1.19948,-1.1395 3.31571,-3.25145 6.3487,-6.33585 l 1.38798,-1.42653 -0.0514,-0.10282 c -3.08439,1.04529 -5.1535,1.79925 -6.20733,2.26189 -0.36842,0.1371 -0.65116,0.20564 -0.84821,0.20563 -0.96816,1e-5 -1.67929,-0.76252 -2.13337,-2.28759 l 0.55262,-0.33415 c 0.34271,0.53979 0.83535,0.80967 1.47793,0.80965 0.85678,2e-5 2.50607,-0.34268 4.94789,-1.02813 1.07952,-0.29127 1.79921,-0.56973 2.15907,-0.83535 0.0942,-0.0685 0.20132,-0.10279 0.32129,-0.10281 0.3941,2e-5 0.82249,0.3513 1.28516,1.05383 0.29986,0.46268 0.44979,0.80539 0.44981,1.02813 -2e-5,0.18851 -0.16709,0.34702 -0.50121,0.47551 -0.70257,0.25705 -3.17009,2.39471 -7.40254,6.41296 l -0.65544,0.62974 -1.15664,1.10523 0.0771,0.0771 c 2.37326,-1.37083 4.5923,-2.05624 6.65714,-2.05626 1.9363,2e-5 3.51704,0.45839 4.74225,1.37512 1.37082,1.01958 2.05624,2.30902 2.05626,3.86835 -2e-5,1.76496 -0.74541,3.31572 -2.23618,4.65228 -1.64502,1.45653 -3.61989,2.18479 -5.9246,2.18479 -2.21049,0 -3.93261,-0.56119 -5.16636,-1.68357 -0.62545,-0.59117 -0.97672,-1.25518 -1.05383,-1.992 m 6.47722,2.3904 c -0.23991,-1.19091 -0.63402,-2.12908 -1.18235,-2.8145 -0.79681,-0.97672 -1.65787,-1.46509 -2.58318,-1.46509 -1.07954,0 -1.63216,0.51835 -1.65786,1.55505 0.0257,0.60831 0.3427,1.14808 0.95102,1.6193 0.98529,0.75397 2.27473,1.13094 3.86834,1.13094 0.26559,0 0.46694,-0.009 0.60403,-0.0257 m -20.27472,-5.34625 c -0.10283,-0.37697 -0.39842,-0.74538 -0.88677,-1.10524 l 0.41126,-0.46265 c 1.08809,0.44553 1.79921,0.97673 2.13337,1.59359 1.31941,0.16281 2.44179,0.50552 3.36713,1.02813 2.09051,1.16523 3.13577,2.81452 3.13579,4.94788 -2e-5,2.47609 -1.10526,4.42525 -3.31572,5.84749 -1.63645,1.02813 -3.80409,1.71356 -6.50292,2.05626 l -0.20563,-0.60402 c 5.54332,-1.15665 8.31499,-3.58989 8.31501,-7.29973 -2e-5,-1.62786 -0.62118,-2.93444 -1.86349,-3.91974 -0.76255,-0.59974 -1.72214,-0.99385 -2.87877,-1.18235 -0.17994,1.00243 -0.79252,2.28332 -1.83778,3.84263 -1.02814,1.49937 -2.18478,2.81451 -3.46994,3.94546 0.0257,0.16279 0.0685,0.35985 0.12852,0.59117 0.0771,0.27417 0.11994,0.42839 0.12851,0.46266 0.10281,0.34271 0.15421,0.66829 0.15422,0.97672 -10e-6,0.58261 -0.18421,1.08382 -0.55262,1.50364 -0.1885,0.18849 -0.35556,0.28274 -0.50121,0.28274 -0.43696,0 -0.70685,-0.8782 -0.80965,-2.63459 -2.03913,1.5165 -3.69699,2.27474 -4.97358,2.27474 -1.42225,0 -2.13338,-0.87819 -2.13337,-2.63458 -1e-5,-2.15907 1.1395,-4.21961 3.41853,-6.18164 1.02813,-0.83106 2.2576,-1.53361 3.68842,-2.10766 0.0343,-0.5826 0.0728,-1.18662 0.11566,-1.81208 0.0428,-0.57403 0.0642,-0.8739 0.0643,-0.89961 l 0.0514,-0.66829 c -0.57405,0.0428 -0.99387,0.0643 -1.25946,0.0643 -1.97915,1e-5 -3.32001,-0.69398 -4.02256,-2.08197 l 0.50121,-0.42411 c 0.65972,0.98531 1.64073,1.47796 2.94303,1.47795 0.50549,1e-5 1.15664,-0.0471 1.95344,-0.14138 l 0.0514,-0.57832 0.0257,-0.46266 c 0.0685,-0.69397 0.1028,-1.20375 0.10282,-1.52934 -2e-5,-0.94243 -0.4284,-1.61072 -1.28517,-2.00485 l 0.35985,-0.55263 c 1.84205,0.34274 2.76309,0.9382 2.7631,1.78638 -1e-5,0.20565 -0.0857,0.63832 -0.25704,1.29801 -0.11996,0.51409 -0.25276,1.11812 -0.3984,1.81209 1.34513,-0.23132 2.42467,-0.55689 3.23862,-0.97672 0.0171,-0.0171 0.0343,-0.0257 0.0514,-0.0257 0.24845,-0.11993 0.49263,-0.26987 0.73254,-0.44981 0.33413,-0.22274 0.66827,-0.33412 1.00243,-0.33414 0.3941,2e-5 0.75394,0.0857 1.07954,0.25703 0.24845,0.1371 0.37268,0.27848 0.37269,0.4241 -1e-5,0.19708 -0.17565,0.38986 -0.52692,0.57833 -1.5165,0.76255 -3.55991,1.34087 -6.13022,1.73497 -0.14566,1.01958 -0.24419,2.03914 -0.29559,3.05869 1.36226,-0.41124 2.63457,-0.66827 3.81694,-0.7711 m 0.0514,0.84821 c -1.29374,0.0771 -2.60033,0.36842 -3.91975,0.87391 -0.0171,0.32559 -0.0257,1.15666 -0.0257,2.49321 0,1.33658 0.0343,2.39898 0.10281,3.18721 1.18234,-1.23375 2.21904,-2.75024 3.1101,-4.54948 0.4198,-0.8739 0.66399,-1.54218 0.73254,-2.00485 m -5.1535,7.81379 c -0.0343,-1.43938 -0.0514,-2.41182 -0.0514,-2.91732 -2e-5,-0.14564 0.004,-0.5826 0.0128,-1.31087 0.0171,-0.83963 0.03,-1.55932 0.0386,-2.15907 -0.694,0.35129 -1.43082,0.83108 -2.21048,1.43938 -2.14195,1.82494 -3.21291,3.73983 -3.21291,5.74468 0,0.93389 0.37698,1.40083 1.13094,1.40083 1.0624,0 2.49322,-0.73254 4.29245,-2.19763 m -26.11204,-8.93786 c -1.21545,-3.67525 -2.09086,-7.77013 -2.62622,-12.28467 -0.13023,-1.34564 -0.41241,-2.23551 -0.84648,-2.66964 -0.39068,-0.30382 -1.07076,-0.47745 -2.0402,-0.52091 l 0.0435,-1.0201 c 1.02733,-0.18807 1.8738,-0.28211 2.53941,-0.28215 2.31513,4e-5 3.4727,1.00567 3.47271,3.01691 -1e-5,0.058 -0.0289,0.49199 -0.0869,1.30225 -0.0289,0.26049 -0.0435,0.67287 -0.0435,1.23717 -1e-5,1.0997 0.10118,2.62625 0.30386,4.57961 0.17363,1.8232 0.57154,3.64635 1.19374,5.4695 l 0.49921,-0.26046 c 0.4196,-0.26044 1.79419,-1.04901 4.12382,-2.36576 l 1.60612,-0.86817 3.47271,-1.97511 c 0.6511,-0.34724 0.97667,-0.73069 0.97668,-1.15033 -1e-5,-0.39064 -0.31111,-0.87539 -0.93328,-1.4542 l 0.75966,-0.75965 c 2.6045,1.27335 3.90676,2.56114 3.90679,3.86337 -3e-5,0.59328 -0.90438,1.24442 -2.71305,1.9534 -13.42778,5.36823 -20.14166,10.09255 -20.14166,14.17296 0,3.37142 3.63186,5.05712 10.89559,5.05712 3.32799,0 6.46789,-0.38344 9.4197,-1.15034 0.92603,-0.26045 1.56269,-0.39066 1.90998,-0.39067 0.65111,1e-5 1.30225,0.23875 1.9534,0.71624 0.50641,0.31833 0.75962,0.68732 0.75966,1.10692 -4e-5,0.63668 -0.6367,1.06352 -1.90999,1.28057 -3.09651,0.59325 -6.57645,0.88988 -10.4398,0.88988 -9.6657,0 -14.49853,-2.47431 -14.49853,-7.42291 0,-3.22669 2.81434,-6.58364 8.44301,-10.07083"
         style="fill-opacity:1;fill:url(#linearGradient3792);stroke-width:1.97401018000000006;stroke-miterlimit:4;stroke-dasharray:none;stroke:#0077c6;stroke-opacity:1;stroke-linejoin:round;stroke-linecap:round"
         id="path3796" />
    </g>
    <g
       transform="matrix(1.519749,0,0,1.519749,-106.76357,-81.244093)"
       style="font-size:40px;font-style:normal;font-variant:normal;font-weight:normal;font-stretch:normal;line-height:125%;letter-spacing:0px;word-spacing:0px;fill:url(#linearGradient3792);fill-opacity:1;stroke:none;font-family:TakaoExMincho;-inkscape-font-specification:TakaoExMincho"
       id="flowRoot3002"
       inkscape:export-xdpi="90"
       inkscape:export-ydpi="90">
      <path
         id="path3013"
         style="fill-opacity:1;fill:url(#linearGradient3792)"
         d="m 276.83594,172.22852 c -0.20836,-2.01821 -0.93101,-3.68488 -2.16797,-5 -1.40627,-1.52341 -3.31382,-2.28513 -5.72266,-2.28516 -1.94011,3e-5 -3.47657,0.62503 -4.60937,1.875 -0.91147,0.98961 -1.3672,2.18101 -1.36719,3.57422 -10e-6,2.38283 1.73827,4.19272 5.21484,5.42969 l 0.9961,0.35156 c 4.21873,1.53647 6.94008,2.9948 8.16406,4.375 1.14581,1.30209 1.71873,2.85808 1.71875,4.66797 -2e-5,2.73438 -1.10679,4.83073 -3.32031,6.28906 -1.6146,1.05469 -3.53517,1.58203 -5.76172,1.58203 -2.43491,0 -4.70053,-0.65755 -6.79688,-1.97266 -0.59896,-0.40364 -1.06771,-0.60546 -1.40625,-0.60546 -0.48177,0 -0.72266,0.59896 -0.72265,1.79687 l -1.23047,0 0,-9.31641 1.15234,0 c 0.28646,2.44793 1.07422,4.38152 2.36328,5.80079 1.6927,1.80989 3.90624,2.71484 6.64063,2.71484 1.80988,0 3.24868,-0.49479 4.3164,-1.48438 1.14582,-1.02864 1.71874,-2.42838 1.71875,-4.19921 -1e-5,-1.32812 -0.48178,-2.51302 -1.44531,-3.55469 -0.87241,-0.92447 -2.69532,-1.95311 -5.46875,-3.08594 l -0.76172,-0.3125 c -2.90365,-1.1328 -4.8112,-2.04425 -5.72265,-2.73437 -1.67969,-1.27603 -2.51954,-2.96873 -2.51953,-5.07813 -1e-5,-2.35675 0.8789,-4.23825 2.63671,-5.64453 1.60156,-1.27601 3.63281,-1.91403 6.09375,-1.91406 2.13541,3e-5 4.2578,0.57294 6.36719,1.71875 0.42967,0.24742 0.74868,0.37112 0.95703,0.37109 0.37759,3e-5 0.58592,-0.53383 0.625,-1.60156 l 1.25,0 0,8.24219 -1.1914,0 m -35.72266,-9.04297 c 3.71092,3e-5 6.83592,1.26956 9.375,3.80859 2.87758,2.91669 4.31638,6.63413 4.31641,11.15234 -3e-5,4.77866 -1.45185,8.6198 -4.35547,11.52344 -2.51305,2.5 -5.62502,3.75 -9.33594,3.75 -3.69793,0 -6.81641,-1.26302 -9.35547,-3.78906 -2.90365,-2.90364 -4.35547,-6.70572 -4.35547,-11.40625 0,-4.57029 1.4388,-8.31378 4.31641,-11.23047 2.53905,-2.53903 5.67056,-3.80856 9.39453,-3.80859 m 0,1.40625 c -3.25522,3e-5 -5.83985,1.33466 -7.75391,4.0039 -1.75781,2.43492 -2.63672,5.61851 -2.63671,9.55078 -1e-5,3.4896 0.67707,6.41277 2.03125,8.76954 1.87499,3.30729 4.66144,4.96093 8.35937,4.96093 3.20311,0 5.76821,-1.32161 7.69531,-3.96484 1.78383,-2.42187 2.67576,-5.6315 2.67578,-9.62891 -2e-5,-4.27081 -1.00262,-7.64971 -3.00781,-10.13672 -1.88804,-2.36976 -4.34246,-3.55465 -7.36328,-3.55468 m -34.79201,17.35382 c -0.0171,-0.0857 -0.0257,-0.20134 -0.0257,-0.347 -10e-6,-0.61687 0.19277,-1.1395 0.57832,-1.5679 0.54833,-0.59973 1.28516,-0.8996 2.21048,-0.89961 1.645,1e-5 3.07581,0.72826 4.29244,2.18478 0.69398,0.83964 1.10951,1.74354 1.24662,2.71169 0.94243,-0.29987 1.76922,-0.77538 2.48036,-1.42653 1.17376,-1.07097 1.76065,-2.32614 1.76067,-3.76552 -2e-5,-1.49079 -0.65117,-2.64743 -1.95345,-3.46994 -0.9853,-0.61688 -2.13338,-0.92532 -3.44424,-0.92532 -1.011,0 -2.0477,0.19278 -3.11009,0.57832 -2.53606,0.92533 -4.51092,2.41183 -5.9246,4.45952 -0.33414,0.48836 -0.67685,0.73255 -1.02813,0.73254 -0.41982,1e-5 -0.62973,-0.42838 -0.62973,-1.28517 0,-0.48835 0.21848,-0.93816 0.65544,-1.34942 l 3.76552,-3.5856 c 1.19948,-1.1395 3.31571,-3.25145 6.3487,-6.33585 l 1.38798,-1.42653 -0.0514,-0.10282 c -3.08439,1.04529 -5.1535,1.79925 -6.20733,2.26189 -0.36842,0.1371 -0.65116,0.20564 -0.84821,0.20563 -0.96816,1e-5 -1.67929,-0.76252 -2.13337,-2.28759 l 0.55262,-0.33415 c 0.34271,0.53979 0.83535,0.80967 1.47793,0.80965 0.85678,2e-5 2.50607,-0.34268 4.94789,-1.02813 1.07952,-0.29127 1.79921,-0.56973 2.15907,-0.83535 0.0942,-0.0685 0.20132,-0.10279 0.32129,-0.10281 0.3941,2e-5 0.82249,0.3513 1.28516,1.05383 0.29986,0.46268 0.44979,0.80539 0.44981,1.02813 -2e-5,0.18851 -0.16709,0.34702 -0.50121,0.47551 -0.70257,0.25705 -3.17009,2.39471 -7.40254,6.41296 l -0.65544,0.62974 -1.15664,1.10523 0.0771,0.0771 c 2.37326,-1.37083 4.5923,-2.05624 6.65714,-2.05626 1.9363,2e-5 3.51704,0.45839 4.74225,1.37512 1.37082,1.01958 2.05624,2.30902 2.05626,3.86835 -2e-5,1.76496 -0.74541,3.31572 -2.23618,4.65228 -1.64502,1.45653 -3.61989,2.18479 -5.9246,2.18479 -2.21049,0 -3.93261,-0.56119 -5.16636,-1.68357 -0.62545,-0.59117 -0.97672,-1.25518 -1.05383,-1.992 m 6.47722,2.3904 c -0.23991,-1.19091 -0.63402,-2.12908 -1.18235,-2.8145 -0.79681,-0.97672 -1.65787,-1.46509 -2.58318,-1.46509 -1.07954,0 -1.63216,0.51835 -1.65786,1.55505 0.0257,0.60831 0.3427,1.14808 0.95102,1.6193 0.98529,0.75397 2.27473,1.13094 3.86834,1.13094 0.26559,0 0.46694,-0.009 0.60403,-0.0257 m -20.27472,-5.34625 c -0.10283,-0.37697 -0.39842,-0.74538 -0.88677,-1.10524 l 0.41126,-0.46265 c 1.08809,0.44553 1.79921,0.97673 2.13337,1.59359 1.31941,0.16281 2.44179,0.50552 3.36713,1.02813 2.09051,1.16523 3.13577,2.81452 3.13579,4.94788 -2e-5,2.47609 -1.10526,4.42525 -3.31572,5.84749 -1.63645,1.02813 -3.80409,1.71356 -6.50292,2.05626 l -0.20563,-0.60402 c 5.54332,-1.15665 8.31499,-3.58989 8.31501,-7.29973 -2e-5,-1.62786 -0.62118,-2.93444 -1.86349,-3.91974 -0.76255,-0.59974 -1.72214,-0.99385 -2.87877,-1.18235 -0.17994,1.00243 -0.79252,2.28332 -1.83778,3.84263 -1.02814,1.49937 -2.18478,2.81451 -3.46994,3.94546 0.0257,0.16279 0.0685,0.35985 0.12852,0.59117 0.0771,0.27417 0.11994,0.42839 0.12851,0.46266 0.10281,0.34271 0.15421,0.66829 0.15422,0.97672 -10e-6,0.58261 -0.18421,1.08382 -0.55262,1.50364 -0.1885,0.18849 -0.35556,0.28274 -0.50121,0.28274 -0.43696,0 -0.70685,-0.8782 -0.80965,-2.63459 -2.03913,1.5165 -3.69699,2.27474 -4.97358,2.27474 -1.42225,0 -2.13338,-0.87819 -2.13337,-2.63458 -1e-5,-2.15907 1.1395,-4.21961 3.41853,-6.18164 1.02813,-0.83106 2.2576,-1.53361 3.68842,-2.10766 0.0343,-0.5826 0.0728,-1.18662 0.11566,-1.81208 0.0428,-0.57403 0.0642,-0.8739 0.0643,-0.89961 l 0.0514,-0.66829 c -0.57405,0.0428 -0.99387,0.0643 -1.25946,0.0643 -1.97915,1e-5 -3.32001,-0.69398 -4.02256,-2.08197 l 0.50121,-0.42411 c 0.65972,0.98531 1.64073,1.47796 2.94303,1.47795 0.50549,1e-5 1.15664,-0.0471 1.95344,-0.14138 l 0.0514,-0.57832 0.0257,-0.46266 c 0.0685,-0.69397 0.1028,-1.20375 0.10282,-1.52934 -2e-5,-0.94243 -0.4284,-1.61072 -1.28517,-2.00485 l 0.35985,-0.55263 c 1.84205,0.34274 2.76309,0.9382 2.7631,1.78638 -1e-5,0.20565 -0.0857,0.63832 -0.25704,1.29801 -0.11996,0.51409 -0.25276,1.11812 -0.3984,1.81209 1.34513,-0.23132 2.42467,-0.55689 3.23862,-0.97672 0.0171,-0.0171 0.0343,-0.0257 0.0514,-0.0257 0.24845,-0.11993 0.49263,-0.26987 0.73254,-0.44981 0.33413,-0.22274 0.66827,-0.33412 1.00243,-0.33414 0.3941,2e-5 0.75394,0.0857 1.07954,0.25703 0.24845,0.1371 0.37268,0.27848 0.37269,0.4241 -1e-5,0.19708 -0.17565,0.38986 -0.52692,0.57833 -1.5165,0.76255 -3.55991,1.34087 -6.13022,1.73497 -0.14566,1.01958 -0.24419,2.03914 -0.29559,3.05869 1.36226,-0.41124 2.63457,-0.66827 3.81694,-0.7711 m 0.0514,0.84821 c -1.29374,0.0771 -2.60033,0.36842 -3.91975,0.87391 -0.0171,0.32559 -0.0257,1.15666 -0.0257,2.49321 0,1.33658 0.0343,2.39898 0.10281,3.18721 1.18234,-1.23375 2.21904,-2.75024 3.1101,-4.54948 0.4198,-0.8739 0.66399,-1.54218 0.73254,-2.00485 m -5.1535,7.81379 c -0.0343,-1.43938 -0.0514,-2.41182 -0.0514,-2.91732 -2e-5,-0.14564 0.004,-0.5826 0.0128,-1.31087 0.0171,-0.83963 0.03,-1.55932 0.0386,-2.15907 -0.694,0.35129 -1.43082,0.83108 -2.21048,1.43938 -2.14195,1.82494 -3.21291,3.73983 -3.21291,5.74468 0,0.93389 0.37698,1.40083 1.13094,1.40083 1.0624,0 2.49322,-0.73254 4.29245,-2.19763 m -26.11204,-8.93786 c -1.21545,-3.67525 -2.09086,-7.77013 -2.62622,-12.28467 -0.13023,-1.34564 -0.41241,-2.23551 -0.84648,-2.66964 -0.39068,-0.30382 -1.07076,-0.47745 -2.0402,-0.52091 l 0.0435,-1.0201 c 1.02733,-0.18807 1.8738,-0.28211 2.53941,-0.28215 2.31513,4e-5 3.4727,1.00567 3.47271,3.01691 -1e-5,0.058 -0.0289,0.49199 -0.0869,1.30225 -0.0289,0.26049 -0.0435,0.67287 -0.0435,1.23717 -1e-5,1.0997 0.10118,2.62625 0.30386,4.57961 0.17363,1.8232 0.57154,3.64635 1.19374,5.4695 l 0.49921,-0.26046 c 0.4196,-0.26044 1.79419,-1.04901 4.12382,-2.36576 l 1.60612,-0.86817 3.47271,-1.97511 c 0.6511,-0.34724 0.97667,-0.73069 0.97668,-1.15033 -1e-5,-0.39064 -0.31111,-0.87539 -0.93328,-1.4542 l 0.75966,-0.75965 c 2.6045,1.27335 3.90676,2.56114 3.90679,3.86337 -3e-5,0.59328 -0.90438,1.24442 -2.71305,1.9534 -13.42778,5.36823 -20.14166,10.09255 -20.14166,14.17296 0,3.37142 3.63186,5.05712 10.89559,5.05712 3.32799,0 6.46789,-0.38344 9.4197,-1.15034 0.92603,-0.26045 1.56269,-0.39066 1.90998,-0.39067 0.65111,1e-5 1.30225,0.23875 1.9534,0.71624 0.50641,0.31833 0.75962,0.68732 0.75966,1.10692 -4e-5,0.63668 -0.6367,1.06352 -1.90999,1.28057 -3.09651,0.59325 -6.57645,0.88988 -10.4398,0.88988 -9.6657,0 -14.49853,-2.47431 -14.49853,-7.42291 0,-3.22669 2.81434,-6.58364 8.44301,-10.07083" />
    </g>
  </g>
</svg>
